<svg width="26" height="26" viewBox="0 0 26 26" fill="none" xmlns="http://www.w3.org/2000/svg">
<path d="M18.3629 8.8875L21.2379 11.75L9.25037 11.75C8.91885 11.75 8.60091 11.8817 8.36649 12.1161C8.13207 12.3505 8.00037 12.6685 8.00037 13C8.00037 13.3315 8.13207 13.6495 8.36649 13.8839C8.60091 14.1183 8.91885 14.25 9.25037 14.25L21.2379 14.25L18.3629 17.1125C18.2457 17.2287 18.1527 17.367 18.0893 17.5193C18.0258 17.6716 17.9931 17.835 17.9931 18C17.9931 18.165 18.0258 18.3284 18.0893 18.4807C18.1527 18.633 18.2457 18.7713 18.3629 18.8875C18.4791 19.0047 18.6173 19.0977 18.7697 19.1611C18.922 19.2246 19.0854 19.2572 19.2504 19.2572C19.4154 19.2572 19.5788 19.2246 19.7311 19.1611C19.8834 19.0977 20.0217 19.0047 20.1379 18.8875L25.1379 13.8875C25.2517 13.7686 25.3409 13.6284 25.4004 13.475C25.5254 13.1707 25.5254 12.8293 25.4004 12.525C25.3409 12.3716 25.2517 12.2314 25.1379 12.1125L20.1379 7.1125C20.0213 6.99595 19.883 6.9035 19.7307 6.84043C19.5784 6.77735 19.4152 6.74489 19.2504 6.74489C19.0855 6.74489 18.9223 6.77735 18.7701 6.84043C18.6178 6.9035 18.4794 6.99595 18.3629 7.1125C18.2463 7.22905 18.1539 7.36741 18.0908 7.51969C18.0277 7.67197 17.9953 7.83518 17.9953 8C17.9953 8.16482 18.0277 8.32803 18.0908 8.48031C18.1539 8.63259 18.2463 8.77095 18.3629 8.8875ZM13.0004 24.25C13.0004 23.9185 12.8687 23.6005 12.6343 23.3661C12.3998 23.1317 12.0819 23 11.7504 23H4.25037C3.91885 23 3.60091 22.8683 3.36649 22.6339C3.13207 22.3995 3.00037 22.0815 3.00037 21.75L3.00037 4.25C3.00037 3.91848 3.13207 3.60054 3.36649 3.36612C3.60091 3.1317 3.91885 3 4.25037 3L11.7504 3C12.0819 3 12.3998 2.8683 12.6343 2.63388C12.8687 2.39946 13.0004 2.08152 13.0004 1.75C13.0004 1.41848 12.8687 1.10054 12.6343 0.866116C12.3998 0.631696 12.0819 0.5 11.7504 0.5L4.25037 0.5C3.25581 0.5 2.30198 0.895088 1.59872 1.59835C0.895461 2.30161 0.500373 3.25544 0.500373 4.25L0.500373 21.75C0.500373 22.7446 0.895461 23.6984 1.59872 24.4017C2.30198 25.1049 3.25581 25.5 4.25037 25.5H11.7504C12.0819 25.5 12.3998 25.3683 12.6343 25.1339C12.8687 24.8995 13.0004 24.5815 13.0004 24.25Z" fill="#CDCDCD"/>
</svg>
